<svg xmlns="http://www.w3.org/2000/svg" version="1.1" width="640" height="480" style="position: absolute; left: 10px; top: 50px;"><desc>Created with Rapha‘l</desc><defs/><path fill="#1751a7" stroke="#ffffff" d="M320,240L222.42978699614716,218.08987598431298A100,100,0,0,1,417.57021300385287,218.089875984313Z" stroke-width="1" stroke-linejoin="round"/><path fill="#8aa717" stroke="#ffffff" d="M320,240L417.57021300385287,218.089875984313A100,100,0,0,1,341.91012401568696,337.57021300385287Z" stroke-width="1" stroke-linejoin="round"/><path fill="#a74217" stroke="#ffffff" d="M320,240L341.91012401568696,337.57021300385287A100,100,0,0,1,251.0459455262933,312.4247082951467Z" stroke-width="1" stroke-linejoin="round"/><path fill="#a78a17" stroke="#ffffff" d="M320,240L251.0459455262933,312.4247082951467A100,100,0,0,1,221.47223576110588,257.0961888760301Z" stroke-width="1" stroke-linejoin="round"/><path fill="#5f17a7" stroke="#ffffff" d="M320,240L221.47223576110588,257.0961888760301A100,100,0,0,1,220.270954332131,232.64354364003324Z" stroke-width="1" stroke-linejoin="round"/><path fill="#a71717" stroke="#ffffff" d="M320,240L220.270954332131,232.64354364003324A100,100,0,0,1,221.47223576110588,222.9038111239699Z" stroke-width="1" stroke-linejoin="round"/><path fill="#00327f" stroke="#ffffff" d="M320,240L221.47223576110588,222.9038111239699A100,100,0,0,1,222.42978699614713,218.089875984313Z" stroke-width="1" stroke-linejoin="round"/><path fill="#000000" stroke="none" d="M320,240L222.42978699614716,218.08987598431298A100,100,0,0,1,417.57021300385287,218.089875984313Z" fill-opacity="0"/><path fill="#000000" stroke="none" d="M320,240L417.57021300385287,218.089875984313A100,100,0,0,1,341.91012401568696,337.57021300385287Z" fill-opacity="0"/><path fill="#000000" stroke="none" d="M320,240L341.91012401568696,337.57021300385287A100,100,0,0,1,251.0459455262933,312.4247082951467Z" fill-opacity="0"/><path fill="#000000" stroke="none" d="M320,240L251.0459455262933,312.4247082951467A100,100,0,0,1,221.47223576110588,257.0961888760301Z" fill-opacity="0"/><path fill="#000000" stroke="none" d="M320,240L221.47223576110588,257.0961888760301A100,100,0,0,1,220.270954332131,232.64354364003324Z" fill-opacity="0"/><path fill="#000000" stroke="none" d="M320,240L220.270954332131,232.64354364003324A100,100,0,0,1,221.47223576110588,222.9038111239699Z" fill-opacity="0"/><path fill="#000000" stroke="none" d="M320,240L221.47223576110588,222.9038111239699A100,100,0,0,1,222.42978699614713,218.089875984313Z" fill-opacity="0"/></svg>